<?xml version="1.0" encoding="UTF-8" standalone="no"?>
<!-- Created with Inkscape (http://www.inkscape.org/) -->

<svg
   xmlns:dc="http://purl.org/dc/elements/1.1/"
   xmlns:cc="http://creativecommons.org/ns#"
   xmlns:rdf="http://www.w3.org/1999/02/22-rdf-syntax-ns#"
   xmlns:svg="http://www.w3.org/2000/svg"
   xmlns="http://www.w3.org/2000/svg"
   version="1.1"
   width="272"
   height="272"
   id="svg4462">
  <defs
     id="defs4464">
    <clipPath
       id="clipPath5603">
      <path
         d="m 2620,6700 c 0,600 -490,1090 -1090,1090 -597,0 -1083,-490 -1083,-1090 0,-600 486,-1080 1083,-1080 600,0 1090,480 1090,1080"
         id="path5605" />
    </clipPath>
    <clipPath
       id="clipPath5591">
      <path
         d="m 7570,1750 c 0,600 -480,1080 -1080,1080 -600,0 -1090,-480 -1090,-1080 0,-600 490,-1087 1090,-1087 600,0 1080,487 1080,1087"
         id="path5593" />
    </clipPath>
    <clipPath
       id="clipPath5537">
      <path
         d="m 7570,1750 c 0,600 -480,1080 -1080,1080 -600,0 -1090,-480 -1090,-1080 0,-600 490,-1087 1090,-1087 600,0 1080,487 1080,1087"
         id="path5539" />
    </clipPath>
    <clipPath
       id="clipPath5531">
      <path
         d="m 7570,1750 c 0,600 -480,1080 -1080,1080 -600,0 -1090,-480 -1090,-1080 0,-600 490,-1087 1090,-1087 600,0 1080,487 1080,1087"
         id="path5533" />
    </clipPath>
    <clipPath
       id="clipPath5483">
      <path
         d="m 7570,1750 c 0,600 -480,1080 -1080,1080 -600,0 -1090,-480 -1090,-1080 0,-600 490,-1087 1090,-1087 600,0 1080,487 1080,1087"
         id="path5485" />
    </clipPath>
    <clipPath
       id="clipPath5471">
      <path
         d="m 5100,1680 c 0,600 -490,1090 -1090,1090 -600,0 -1090,-490 -1090,-1090 0,-600 490,-1086 1090,-1086 600,0 1090,486 1090,1086"
         id="path5473" />
    </clipPath>
    <clipPath
       id="clipPath5417">
      <path
         d="m 5100,1680 c 0,600 -490,1090 -1090,1090 -600,0 -1090,-490 -1090,-1090 0,-600 490,-1086 1090,-1086 600,0 1090,486 1090,1086"
         id="path5419" />
    </clipPath>
    <clipPath
       id="clipPath5411">
      <path
         d="m 5100,1680 c 0,600 -490,1090 -1090,1090 -600,0 -1090,-490 -1090,-1090 0,-600 490,-1086 1090,-1086 600,0 1090,486 1090,1086"
         id="path5413" />
    </clipPath>
    <clipPath
       id="clipPath5363">
      <path
         d="m 5100,1680 c 0,600 -490,1090 -1090,1090 -600,0 -1090,-490 -1090,-1090 0,-600 490,-1086 1090,-1086 600,0 1090,486 1090,1086"
         id="path5365" />
    </clipPath>
    <clipPath
       id="clipPath5351">
      <path
         d="m 2620,1750 c 0,600 -490,1080 -1090,1080 C 933,2830 447,2350 447,1750 447,1150 933,663 1530,663 c 600,0 1090,487 1090,1087"
         id="path5353" />
    </clipPath>
    <clipPath
       id="clipPath5289">
      <path
         d="m 2620,1750 c 0,600 -490,1080 -1090,1080 C 933,2830 447,2350 447,1750 447,1150 933,663 1530,663 c 600,0 1090,487 1090,1087"
         id="path5291" />
    </clipPath>
    <clipPath
       id="clipPath5283">
      <path
         d="m 2620,1750 c 0,600 -490,1080 -1090,1080 C 933,2830 447,2350 447,1750 447,1150 933,663 1530,663 c 600,0 1090,487 1090,1087"
         id="path5285" />
    </clipPath>
    <clipPath
       id="clipPath5235">
      <path
         d="m 2620,1750 c 0,600 -490,1080 -1090,1080 C 933,2830 447,2350 447,1750 447,1150 933,663 1530,663 c 600,0 1090,487 1090,1087"
         id="path5237" />
    </clipPath>
    <clipPath
       id="clipPath5223">
      <path
         d="m 7570,4220 c 0,600 -480,1090 -1080,1090 -600,0 -1090,-490 -1090,-1090 0,-590 490,-1080 1090,-1080 600,0 1080,490 1080,1080"
         id="path5225" />
    </clipPath>
    <clipPath
       id="clipPath5169">
      <path
         d="m 7570,4220 c 0,600 -480,1090 -1080,1090 -600,0 -1090,-490 -1090,-1090 0,-590 490,-1080 1090,-1080 600,0 1080,490 1080,1080"
         id="path5171" />
    </clipPath>
    <clipPath
       id="clipPath5163">
      <path
         d="m 7570,4220 c 0,600 -480,1090 -1080,1090 -600,0 -1090,-490 -1090,-1090 0,-590 490,-1080 1090,-1080 600,0 1080,490 1080,1080"
         id="path5165" />
    </clipPath>
    <clipPath
       id="clipPath5115">
      <path
         d="m 7570,4220 c 0,600 -480,1090 -1080,1090 -600,0 -1090,-490 -1090,-1090 0,-590 490,-1080 1090,-1080 600,0 1080,490 1080,1080"
         id="path5117" />
    </clipPath>
    <clipPath
       id="clipPath5103">
      <path
         d="m 5100,4220 c 0,600 -490,1090 -1090,1090 -600,0 -1090,-490 -1090,-1090 0,-590 490,-1080 1090,-1080 600,0 1090,490 1090,1080"
         id="path5105" />
    </clipPath>
    <clipPath
       id="clipPath5049">
      <path
         d="m 5100,4220 c 0,600 -490,1090 -1090,1090 -600,0 -1090,-490 -1090,-1090 0,-590 490,-1080 1090,-1080 600,0 1090,490 1090,1080"
         id="path5051" />
    </clipPath>
    <clipPath
       id="clipPath5043">
      <path
         d="m 5100,4220 c 0,600 -490,1090 -1090,1090 -600,0 -1090,-490 -1090,-1090 0,-590 490,-1080 1090,-1080 600,0 1090,490 1090,1080"
         id="path5045" />
    </clipPath>
    <clipPath
       id="clipPath4995">
      <path
         d="m 5100,4220 c 0,600 -490,1090 -1090,1090 -600,0 -1090,-490 -1090,-1090 0,-590 490,-1080 1090,-1080 600,0 1090,490 1090,1080"
         id="path4997" />
    </clipPath>
    <clipPath
       id="clipPath4983">
      <path
         d="m 2620,4220 c 0,600 -490,1090 -1090,1090 -597,0 -1083,-490 -1083,-1090 0,-590 486,-1080 1083,-1080 600,0 1090,490 1090,1080"
         id="path4985" />
    </clipPath>
    <clipPath
       id="clipPath4933">
      <path
         d="m 2620,4220 c 0,600 -490,1090 -1090,1090 -597,0 -1083,-490 -1083,-1090 0,-590 486,-1080 1083,-1080 600,0 1090,490 1090,1080"
         id="path4935" />
    </clipPath>
    <clipPath
       id="clipPath4927">
      <path
         d="m 2620,4220 c 0,600 -490,1090 -1090,1090 -597,0 -1083,-490 -1083,-1090 0,-590 486,-1080 1083,-1080 600,0 1090,490 1090,1080"
         id="path4929" />
    </clipPath>
    <clipPath
       id="clipPath4879">
      <path
         d="m 2620,4220 c 0,600 -490,1090 -1090,1090 -597,0 -1083,-490 -1083,-1090 0,-590 486,-1080 1083,-1080 600,0 1090,490 1090,1080"
         id="path4881" />
    </clipPath>
    <clipPath
       id="clipPath4867">
      <path
         d="m 7570,6700 c 0,600 -480,1090 -1080,1090 -600,0 -1090,-490 -1090,-1090 0,-600 490,-1080 1090,-1080 600,0 1080,480 1080,1080"
         id="path4869" />
    </clipPath>
    <clipPath
       id="clipPath4813">
      <path
         d="m 7570,6700 c 0,600 -480,1090 -1080,1090 -600,0 -1090,-490 -1090,-1090 0,-600 490,-1080 1090,-1080 600,0 1080,480 1080,1080"
         id="path4815" />
    </clipPath>
    <clipPath
       id="clipPath4807">
      <path
         d="m 7570,6700 c 0,600 -480,1090 -1080,1090 -600,0 -1090,-490 -1090,-1090 0,-600 490,-1080 1090,-1080 600,0 1080,480 1080,1080"
         id="path4809" />
    </clipPath>
    <clipPath
       id="clipPath4759">
      <path
         d="m 7570,6700 c 0,600 -480,1090 -1080,1090 -600,0 -1090,-490 -1090,-1090 0,-600 490,-1080 1090,-1080 600,0 1080,480 1080,1080"
         id="path4761" />
    </clipPath>
    <clipPath
       id="clipPath4669">
      <path
         d="m 5100,6700 c 0,600 -490,1090 -1090,1090 -600,0 -1090,-490 -1090,-1090 0,-600 490,-1080 1090,-1080 600,0 1090,480 1090,1080"
         id="path4671" />
    </clipPath>
    <clipPath
       id="clipPath4623">
      <path
         d="m 5100,6700 c 0,600 -490,1090 -1090,1090 -600,0 -1090,-490 -1090,-1090 0,-600 490,-1080 1090,-1080 600,0 1090,480 1090,1080"
         id="path4625" />
    </clipPath>
    <clipPath
       id="clipPath4617">
      <path
         d="m 5100,6700 c 0,600 -490,1090 -1090,1090 -600,0 -1090,-490 -1090,-1090 0,-600 490,-1080 1090,-1080 600,0 1090,480 1090,1080"
         id="path4619" />
    </clipPath>
    <clipPath
       id="clipPath4569">
      <path
         d="m 5100,6700 c 0,600 -490,1090 -1090,1090 -600,0 -1090,-490 -1090,-1090 0,-600 490,-1080 1090,-1080 600,0 1090,480 1090,1080"
         id="path4571" />
    </clipPath>
  </defs>
  <metadata
     id="metadata4467">
    <rdf:RDF>
      <cc:Work
         rdf:about="">
        <dc:format>image/svg+xml</dc:format>
        <dc:type
           rdf:resource="http://purl.org/dc/dcmitype/StillImage" />
        <dc:title></dc:title>
      </cc:Work>
    </rdf:RDF>
  </metadata>
  <g
     transform="translate(19,-431)"
     id="layer1">
    <g
       transform="translate(-986,-195)"
       id="g7501">
      <g
         transform="matrix(0.125,0,0,-0.125,602,1290)"
         clip-path="url(#clipPath4995)"
         id="g4993">
        <path
           d="m 5100,4220 c 0,600 -490,1090 -1090,1090 -600,0 -1090,-490 -1090,-1090 0,-590 490,-1080 1090,-1080 600,0 1090,490 1090,1080"
           id="path4999"
           style="fill:#d3d2cf;fill-opacity:1;fill-rule:nonzero;stroke:none" />
        <path
           d="m 3320,3070 c 10,140 240,550 430,550 l 520,0 c 200,0 420,-410 430,-550 l -1380,0"
           id="path5001"
           style="fill:#f47439;fill-opacity:1;fill-rule:nonzero;stroke:none" />
        <path
           d="m 4030,3070 610,200 -80,310 -300,50 -250,-60 -260,60 -290,-50 -90,-310 610,-200 50,0"
           id="path5003"
           style="fill:#ffffff;fill-opacity:1;fill-rule:nonzero;stroke:none" />
        <path
           d="m 4460,3240 20,280 -240,90 240,-90 10,-270 c -10,0 -20,-10 -30,-10 m -910,0 c -10,0 -20,10 -30,10 l 10,270 240,90 -240,-90 20,-280"
           id="path5005"
           style="fill:#dfdcda;fill-opacity:1;fill-rule:nonzero;stroke:none" />
        <path
           d="m 4030,3070 430,150 20,300 -280,110 -190,-60 -190,60 -290,-110 20,-300 440,-150 40,0"
           id="path5007"
           style="fill:#ffffff;fill-opacity:1;fill-rule:nonzero;stroke:none" />
        <path
           d="m 3930,3590 -30,10 30,0 0,-10"
           id="path5009"
           style="fill:#e96932;fill-opacity:1;fill-rule:nonzero;stroke:none" />
        <path
           d="m 3790,3620 -10,0 -30,10 -10,0 0,0 40,80 10,0 c 10,-30 10,-60 20,-90 l -20,0"
           id="path5011"
           style="fill:#bcbcb9;fill-opacity:1;fill-rule:nonzero;stroke:none" />
        <path
           d="m 3790,3620 -10,0 10,0 0,0"
           id="path5013"
           style="fill:#e96932;fill-opacity:1;fill-rule:nonzero;stroke:none" />
        <path
           d="m 3770,3610 -30,20 10,0 30,-10 10,0 -20,-10"
           id="path5015"
           style="fill:#dfdcda;fill-opacity:1;fill-rule:nonzero;stroke:none" />
        <path
           d="m 3940,3530 -170,80 40,10 c 0,0 0,-10 0,-20 l 90,0 30,-10 0,-10 30,0 -20,-50"
           id="path5017"
           style="fill:#dfdcda;fill-opacity:1;fill-rule:nonzero;stroke:none" />
        <path
           d="m 4080,3590 0,10 30,0 -30,-10"
           id="path5019"
           style="fill:#e96932;fill-opacity:1;fill-rule:nonzero;stroke:none" />
        <path
           d="m 4230,3620 -10,0 -10,0 c 10,30 10,60 10,80 l 20,10 40,-80 -20,0 -30,-10"
           id="path5021"
           style="fill:#bcbcb9;fill-opacity:1;fill-rule:nonzero;stroke:none" />
        <path
           d="m 4220,3620 0,0 10,0 -10,0"
           id="path5023"
           style="fill:#e96932;fill-opacity:1;fill-rule:nonzero;stroke:none" />
        <path
           d="m 4240,3610 -20,10 10,0 30,10 20,0 0,0 -40,-20"
           id="path5025"
           style="fill:#dfdcda;fill-opacity:1;fill-rule:nonzero;stroke:none" />
        <path
           d="m 4060,3530 -10,50 30,0 0,10 30,10 100,0 c 0,10 0,10 0,20 l 30,-10 -180,-80"
           id="path5027"
           style="fill:#dfdcda;fill-opacity:1;fill-rule:nonzero;stroke:none" />
        <path
           d="m 3810,3600 400,0 c 30,130 20,370 30,470 l -460,0 c 10,-100 0,-340 30,-470"
           id="path5029"
           style="fill:#f47439;fill-opacity:1;fill-rule:nonzero;stroke:none" />
        <path
           d="m 3930,3580 150,0 0,70 -150,0 0,-70 z"
           id="path5031"
           style="fill:#733522;fill-opacity:1;fill-rule:nonzero;stroke:none" />
        <path
           d="m 4080,3580 -150,0 40,-80 70,0 40,80"
           id="path5033"
           style="fill:#58291d;fill-opacity:1;fill-rule:nonzero;stroke:none" />
        <path
           d="m 4090,3100 -170,0 50,400 70,0 50,-400"
           id="path5035"
           style="fill:#733522;fill-opacity:1;fill-rule:nonzero;stroke:none" />
        <path
           d="m 4100,3650 -180,0 c -40,0 -80,10 -120,20 0,20 0,30 -10,50 40,-10 90,-20 130,-20 l 180,0 c 40,0 80,10 120,20 0,-20 0,-30 0,-50 -40,-10 -80,-20 -120,-20"
           id="path5037"
           style="fill:#e96932;fill-opacity:1;fill-rule:nonzero;stroke:none" />
      </g>
      <g
         transform="matrix(0.125,0,0,-0.125,602,1290)"
         id="g5039">
        <g
           clip-path="url(#clipPath5043)"
           id="g5041">
          <g
             clip-path="url(#clipPath5049)"
             id="g5047">
            <path
               d="m 3600,4390 c -80,20 -180,-30 -160,-120 20,-80 110,-80 170,-50 l -10,170"
               id="path5053"
               style="fill:#f46d33;fill-opacity:1;fill-rule:nonzero;stroke:none" />
            <path
               d="m 4420,4390 c 80,20 180,-30 160,-120 -20,-80 -120,-80 -170,-50 l 10,170"
               id="path5055"
               style="fill:#f46d33;fill-opacity:1;fill-rule:nonzero;stroke:none" />
            <path
               d="m 3560,4660 c -280,20 50,-650 50,-650 l 790,-80 c 0,0 370,760 -10,840 l -830,-110"
               id="path5057"
               style="fill:#733522;fill-opacity:1;fill-rule:nonzero;stroke:none" />
            <path
               d="m 3600,4140 c -30,150 -100,540 80,520 180,-10 700,70 700,70 0,0 160,40 40,-580 l -820,-10"
               id="path5059"
               style="fill:#52261c;fill-opacity:1;fill-rule:nonzero;stroke:none" />
            <path
               d="m 4100,3700 -180,0 c -210,0 -380,160 -360,360 l 50,550 c 10,170 170,300 360,300 l 80,0 c 190,0 340,-130 360,-300 l 50,-550 c 10,-200 -150,-360 -360,-360"
               id="path5061"
               style="fill:#f47439;fill-opacity:1;fill-rule:nonzero;stroke:none" />
            <path
               d="m 4100,3700 -180,0 c -200,0 -360,150 -360,330 0,10 0,20 0,30 l 10,130 c 10,-110 40,-140 70,-140 20,0 40,10 60,10 20,10 40,20 60,20 10,0 30,-10 40,-20 50,-30 80,-50 110,-60 20,-30 50,-40 80,-40 -80,0 -150,20 -190,40 -20,10 -40,20 -50,20 -60,0 -70,-90 30,-180 70,-60 130,-80 230,-80 90,0 160,20 230,80 100,90 80,180 30,180 -10,0 -30,-10 -50,-20 -50,-30 -120,-40 -190,-40 30,0 60,10 90,50 30,10 70,20 110,60 10,10 20,10 30,10 20,0 40,-10 60,-20 20,-10 40,-20 60,-20 30,0 60,30 70,150 l 10,-130 c 0,-10 0,-20 0,-30 0,-180 -160,-330 -360,-330"
               id="path5063"
               style="fill:#b15431;fill-opacity:1;fill-rule:nonzero;stroke:none" />
            <path
               d="m 4010,3940 c -130,0 -240,30 -270,60 10,-120 130,-210 270,-210 140,0 260,90 270,210 -40,-30 -140,-60 -270,-60"
               id="path5065"
               style="fill:#a7342b;fill-opacity:1;fill-rule:nonzero;stroke:none" />
            <path
               d="m 3780,3980 c 20,-50 120,-80 230,-80 110,0 200,30 230,80 -50,-20 -140,-40 -230,-40 -100,0 -180,20 -230,40"
               id="path5067"
               style="fill:#ffffff;fill-opacity:1;fill-rule:nonzero;stroke:none" />
            <path
               d="m 4130,3810 c -40,10 -80,10 -120,10 -40,0 -90,0 -120,-10 40,-10 80,-20 120,-20 40,0 80,10 120,20"
               id="path5069"
               style="fill:#ffffff;fill-opacity:1;fill-rule:nonzero;stroke:none" />
            <path
               d="m 3920,4630 c -140,0 -290,10 -300,10 20,110 100,200 210,250 l 440,-50 c 60,-40 100,-100 130,-170 -90,10 -230,20 -290,40 120,-60 -30,-80 -190,-80"
               id="path5071"
               style="fill:#e96932;fill-opacity:1;fill-rule:nonzero;stroke:none" />
            <path
               d="m 4010,3960 c -10,0 -20,0 -20,0 0,0 10,0 20,0 l 0,0 c 10,0 10,0 20,0 -10,0 -10,0 -20,0 m -70,40 c -10,0 -20,0 -30,0 -30,30 -40,80 -40,160 0,130 30,280 70,360 -30,-80 -50,-220 -50,-330 0,-110 20,-170 50,-190 m 140,0 c 30,30 50,90 50,190 0,110 -20,250 -50,330 40,-80 70,-230 70,-360 0,-70 -10,-120 -30,-150 -20,-10 -30,-10 -40,-10"
               id="path5073"
               style="fill:#e96932;fill-opacity:1;fill-rule:nonzero;stroke:none" />
            <path
               d="m 4010,3960 0,0 c -10,0 -20,0 -20,0 -30,0 -60,10 -80,40 10,0 20,0 30,0 20,-20 50,-20 70,-20 30,0 50,0 70,20 10,0 20,0 40,10 -30,-40 -60,-50 -90,-50 -10,0 -10,0 -20,0"
               id="path5075"
               style="fill:#9f4b2e;fill-opacity:1;fill-rule:nonzero;stroke:none" />
            <path
               d="m 4030,4750 c 460,-70 1320,-10 380,170 580,40 60,170 -260,110 350,180 40,220 -340,-20 30,200 -160,170 -190,-200 -90,110 -230,70 -70,-170 260,50 720,-40 480,110"
               id="path5077"
               style="fill:#733522;fill-opacity:1;fill-rule:nonzero;stroke:none" />
            <path
               d="m 3830,4330 c -20,0 -40,20 -50,50 0,30 10,60 40,60 0,0 0,0 0,0 30,0 50,-20 50,-50 10,-30 -10,-60 -40,-60 0,0 0,0 0,0 m -10,110 c 0,0 0,0 0,0 -10,0 -20,-20 -20,-50 0,-20 20,-40 30,-40 0,0 0,0 0,0 20,0 30,20 30,50 -10,20 -20,40 -40,40"
               id="path5079"
               style="fill:#e96932;fill-opacity:1;fill-rule:nonzero;stroke:none" />
            <path
               d="m 3860,4400 c 0,-30 -10,-50 -30,-50 -10,-10 -30,10 -30,40 0,30 10,50 20,50 20,10 30,-10 40,-40"
               id="path5081"
               style="fill:#733522;fill-opacity:1;fill-rule:nonzero;stroke:none" />
            <path
               d="m 3830,4400 c 0,0 -10,10 -10,20 0,10 0,20 10,20 0,0 0,0 0,0 0,0 10,-10 10,-20 0,-10 0,-20 -10,-20 0,0 0,0 0,0"
               id="path5083"
               style="fill:#8c5a3f;fill-opacity:1;fill-rule:nonzero;stroke:none" />
            <path
               d="m 4190,4330 c 0,0 0,0 -10,0 -20,0 -40,30 -30,60 0,30 20,50 40,50 10,0 10,0 10,0 20,0 40,-30 40,-60 -10,-30 -30,-50 -50,-50 m 0,110 c -10,0 -20,-20 -30,-40 0,-30 10,-50 20,-50 10,0 10,0 10,0 10,0 30,20 30,40 0,30 -10,50 -20,50 0,0 0,0 -10,0"
               id="path5085"
               style="fill:#e96932;fill-opacity:1;fill-rule:nonzero;stroke:none" />
            <path
               d="m 4160,4400 c 0,-30 10,-50 20,-50 20,-10 40,10 40,40 0,30 -10,50 -20,50 -20,10 -30,-10 -40,-40"
               id="path5087"
               style="fill:#733522;fill-opacity:1;fill-rule:nonzero;stroke:none" />
            <path
               d="m 4200,4400 c 0,0 0,0 0,0 -10,0 -10,10 -10,20 0,10 0,20 10,20 0,0 0,0 0,0 10,0 10,-10 10,-20 0,-10 -10,-20 -10,-20"
               id="path5089"
               style="fill:#8c5a3f;fill-opacity:1;fill-rule:nonzero;stroke:none" />
            <path
               d="m 3880,4500 -120,-40 c -20,-10 -40,0 -50,20 -10,20 0,50 20,50 l 120,50 c 20,10 40,0 50,-20 l 0,-10 c 10,-20 0,-50 -20,-50"
               id="path5091"
               style="fill:#733522;fill-opacity:1;fill-rule:nonzero;stroke:none" />
            <path
               d="m 4140,4500 120,-40 c 20,-10 40,0 50,20 10,20 0,50 -20,50 l -120,50 c -20,10 -40,0 -50,-20 l -10,-10 c 0,-20 10,-50 30,-50"
               id="path5093"
               style="fill:#733522;fill-opacity:1;fill-rule:nonzero;stroke:none" />
            <path
               d="m 4130,4190 c 0,-170 -50,-210 -120,-210 -70,0 -120,40 -120,210 0,180 50,420 120,420 70,0 120,-240 120,-420"
               id="path5095"
               style="fill:#f47439;fill-opacity:1;fill-rule:nonzero;stroke:none" />
            <path
               d="m 3990,4250 c 0,0 0,0 0,0 -20,0 -30,50 -30,110 10,70 30,120 40,120 0,0 0,0 0,0 20,0 30,-60 30,-120 -10,-60 -30,-110 -40,-110"
               id="path5097"
               style="fill:#f68b56;fill-opacity:1;fill-rule:nonzero;stroke:none" />
          </g>
        </g>
      </g>
      <g
         transform="matrix(0.125,0,0,-0.125,602,1290)"
         id="g5099">
        <g
           clip-path="url(#clipPath5103)"
           id="g5101">
          <path
             d="m 3780,3710 210,-40 -60,-120 -190,80 40,80"
             id="path5107"
             style="fill:#ffffff;fill-opacity:1;fill-rule:nonzero;stroke:none" />
          <path
             d="m 4240,3710 -220,-40 50,-120 210,80 -40,80"
             id="path5109"
             style="fill:#ffffff;fill-opacity:1;fill-rule:nonzero;stroke:none" />
        </g>
      </g>
    </g>
  </g>
</svg>
