<?xml version="1.0" encoding="UTF-8" standalone="no"?>
<!-- Generator: Adobe Illustrator 17.1.0, SVG Export Plug-In . SVG Version: 6.00 Build 0)  -->

<svg
   xmlns:dc="http://purl.org/dc/elements/1.1/"
   xmlns:cc="http://creativecommons.org/ns#"
   xmlns:rdf="http://www.w3.org/1999/02/22-rdf-syntax-ns#"
   xmlns:svg="http://www.w3.org/2000/svg"
   xmlns="http://www.w3.org/2000/svg"
   xmlns:xlink="http://www.w3.org/1999/xlink"
   xmlns:sodipodi="http://sodipodi.sourceforge.net/DTD/sodipodi-0.dtd"
   xmlns:inkscape="http://www.inkscape.org/namespaces/inkscape"
   version="1.1"
   id="Capa_1"
   x="0px"
   y="0px"
   viewBox="0 0 309 309"
   xml:space="preserve"
   inkscape:version="0.48.4 r9939"
   width="100%"
   height="100%"
   sodipodi:docname="megaphone.svg"><metadata
     id="metadata39"><rdf:RDF><cc:Work
         rdf:about=""><dc:format>image/svg+xml</dc:format><dc:type
           rdf:resource="http://purl.org/dc/dcmitype/StillImage" /></cc:Work></rdf:RDF></metadata><defs
     id="defs37"><clipPath
       id="clipPath4015"
       clipPathUnits="userSpaceOnUse"><path
         id="path4017"
         d="m 3910,6520 c 220,90 710,-590 1110,-1570 400,-990 560,-1910 340,-2000 -330,-130 -810,530 -1240,1580 -430,1050 -510,1860 -210,1990" /></clipPath><linearGradient
       id="linearGradient3985"
       spreadMethod="pad"
       gradientTransform="matrix(75.6,-435,-435,-75.6,231,352)"
       gradientUnits="userSpaceOnUse"
       y2="0"
       x2="1"
       y1="0"
       x1="0"><stop
         id="stop3987"
         offset="0"
         style="stop-opacity:1;stop-color:#d9ecb1" /><stop
         id="stop3989"
         offset="0.785"
         style="stop-opacity:1;stop-color:#a9d261" /><stop
         id="stop3991"
         offset="0.785"
         style="stop-opacity:1;stop-color:#a9d261" /><stop
         id="stop3993"
         offset="1"
         style="stop-opacity:1;stop-color:#a9d261" /></linearGradient><clipPath
       id="clipPath3981"
       clipPathUnits="userSpaceOnUse"><path
         id="path3983"
         d="m 4720,2840 c -20,10 -40,10 -60,10 -240,60 -500,80 -760,80 l 0,0 c 260,0 520,-20 760,-80 20,0 40,0 60,-10 l 0,0" /></clipPath><linearGradient
       id="linearGradient3941"
       spreadMethod="pad"
       gradientTransform="matrix(75.6,-435,-435,-75.6,231,352)"
       gradientUnits="userSpaceOnUse"
       y2="0"
       x2="1"
       y1="0"
       x1="0"><stop
         id="stop3943"
         offset="0"
         style="stop-opacity:1;stop-color:#d9ecb1" /><stop
         id="stop3945"
         offset="0.785"
         style="stop-opacity:1;stop-color:#a9d261" /><stop
         id="stop3947"
         offset="0.785"
         style="stop-opacity:1;stop-color:#a9d261" /><stop
         id="stop3949"
         offset="1"
         style="stop-opacity:1;stop-color:#a9d261" /></linearGradient><clipPath
       id="clipPath3937"
       clipPathUnits="userSpaceOnUse"><path
         id="path3939"
         d="m 2400,2210 c -70,0 -130,30 -160,80 -40,60 -70,120 -80,170 90,-60 200,-140 320,-240 -30,-10 -60,-10 -80,-10" /></clipPath><linearGradient
       id="linearGradient3885"
       spreadMethod="pad"
       gradientTransform="matrix(75.6,-435,-435,-75.6,231,352)"
       gradientUnits="userSpaceOnUse"
       y2="0"
       x2="1"
       y1="0"
       x1="0"><stop
         id="stop3887"
         offset="0"
         style="stop-opacity:1;stop-color:#575d49" /><stop
         id="stop3889"
         offset="0.785"
         style="stop-opacity:1;stop-color:#45512f" /><stop
         id="stop3891"
         offset="0.785"
         style="stop-opacity:1;stop-color:#45512f" /><stop
         id="stop3893"
         offset="1"
         style="stop-opacity:1;stop-color:#45512f" /></linearGradient><clipPath
       id="clipPath3881"
       clipPathUnits="userSpaceOnUse"><path
         id="path3883"
         d="m 863,2700 c 0,0 0,0 0,0 31,0 62,10 91,20 17,10 34,20 46,30 0,0 0,0 0,0 -12,-10 -28,-20 -46,-30 -29,-10 -60,-20 -91,-20" /></clipPath><linearGradient
       id="linearGradient3861"
       spreadMethod="pad"
       gradientTransform="matrix(75.6,-435,-435,-75.6,231,352)"
       gradientUnits="userSpaceOnUse"
       y2="0"
       x2="1"
       y1="0"
       x1="0"><stop
         id="stop3863"
         offset="0"
         style="stop-opacity:1;stop-color:#eff7c6" /><stop
         id="stop3865"
         offset="0.785"
         style="stop-opacity:1;stop-color:#bce26d" /><stop
         id="stop3867"
         offset="0.785"
         style="stop-opacity:1;stop-color:#bce26d" /><stop
         id="stop3869"
         offset="1"
         style="stop-opacity:1;stop-color:#bce26d" /></linearGradient><clipPath
       id="clipPath3857"
       clipPathUnits="userSpaceOnUse"><path
         id="path3859"
         d="M 2370,803 C 1060,803 0,1860 0,3170 c 0,1310 1060,2370 2370,2370 170,0 330,-10 480,-50 -270,-260 -580,-490 -910,-680 0,0 0,0 0,0 -30,-20 -60,-40 -100,-60 0,0 0,0 0,0 -40,-20 -100,-50 -140,-80 0,0 0,0 -10,0 0,0 0,0 0,0 0,0 0,0 0,0 -10,-10 -10,-10 -20,-10 -100,-60 -210,-120 -330,-190 l -50,90 c -10,10 -20,20 -50,20 -20,0 -60,-10 -90,-30 -70,-30 -100,-90 -90,-120 l 70,-110 C 897,4140 701,3920 664,3620 c -10,-70 -10,-150 3,-230 -2,0 -3,0 -5,0 -142,-60 -192,-260 -112,-450 64,-140 192,-240 313,-240 0,0 0,0 0,0 0,0 0,0 0,0 31,0 62,10 91,20 18,10 34,20 46,30 180,-150 400,-200 630,-200 110,0 230,10 340,30 20,-10 90,-50 190,-120 10,-50 40,-110 80,-170 30,-50 90,-80 160,-80 20,0 50,0 80,10 250,-200 520,-480 640,-790 -120,-30 -240,-50 -360,-50 -80,0 -170,10 -260,30 -260,60 -500,200 -640,430 -60,100 -90,210 -160,290 -40,60 -120,110 -190,110 -20,0 -50,-10 -70,-20 -40,-30 -90,-60 -130,-90 -30,-30 -50,-70 -60,-110 -20,-110 20,-220 70,-310 80,-160 220,-280 370,-360 180,-90 380,-110 570,-120 30,0 50,0 70,0 160,0 300,10 450,40 90,20 180,40 260,80 30,10 60,30 90,40 20,-40 30,-80 40,-120 0,0 20,0 60,0 0,0 0,0 0,0 0,0 0,0 0,0 10,0 10,0 10,0 0,0 0,0 0,0 70,0 170,10 270,50 190,60 390,210 360,560 0,0 -710,530 -970,940 340,70 670,110 1000,110 260,0 520,-20 760,-80 20,0 40,0 60,-10 C 4560,1690 3570,803 2370,803 m 70,507 c -150,0 -300,10 -440,50 -210,50 -400,180 -520,360 -50,80 -100,180 -110,270 0,60 0,120 20,170 0,0 0,0 0,0 120,0 220,-140 260,-240 80,-170 170,-320 330,-420 150,-100 310,-160 490,-190 -10,0 -20,0 -30,0" /></clipPath><linearGradient
       inkscape:collect="always"
       xlink:href="#linearGradient3861"
       id="linearGradient4454"
       gradientUnits="userSpaceOnUse"
       gradientTransform="matrix(75.6,-435,-435,-75.6,231,352)"
       spreadMethod="pad"
       x1="0"
       y1="0"
       x2="1"
       y2="0" /><linearGradient
       inkscape:collect="always"
       xlink:href="#linearGradient3885"
       id="linearGradient4456"
       gradientUnits="userSpaceOnUse"
       gradientTransform="matrix(75.6,-435,-435,-75.6,231,352)"
       spreadMethod="pad"
       x1="0"
       y1="0"
       x2="1"
       y2="0" /><linearGradient
       inkscape:collect="always"
       xlink:href="#linearGradient3941"
       id="linearGradient4458"
       gradientUnits="userSpaceOnUse"
       gradientTransform="matrix(75.6,-435,-435,-75.6,231,352)"
       spreadMethod="pad"
       x1="0"
       y1="0"
       x2="1"
       y2="0" /><linearGradient
       inkscape:collect="always"
       xlink:href="#linearGradient3985"
       id="linearGradient4460"
       gradientUnits="userSpaceOnUse"
       gradientTransform="matrix(75.6,-435,-435,-75.6,231,352)"
       spreadMethod="pad"
       x1="0"
       y1="0"
       x2="1"
       y2="0" /></defs><sodipodi:namedview
     pagecolor="#000000"
     bordercolor="#666666"
     borderopacity="1"
     objecttolerance="10"
     gridtolerance="10"
     guidetolerance="10"
     inkscape:pageopacity="0"
     inkscape:pageshadow="2"
     inkscape:window-width="1855"
     inkscape:window-height="1056"
     id="namedview35"
     showgrid="false"
     inkscape:zoom="1.67"
     inkscape:cx="153"
     inkscape:cy="139"
     inkscape:window-x="65"
     inkscape:window-y="24"
     inkscape:window-maximized="1"
     inkscape:current-layer="Capa_1"
     fit-margin-top="0"
     fit-margin-left="0"
     fit-margin-right="0"
     fit-margin-bottom="0" /><g
     id="g5"
     transform="translate(0,123)" /><g
     id="g7"
     transform="translate(0,123)" /><g
     id="g9"
     transform="translate(0,123)" /><g
     id="g11"
     transform="translate(0,123)" /><g
     id="g13"
     transform="translate(0,123)" /><g
     id="g15"
     transform="translate(0,123)" /><g
     id="g17"
     transform="translate(0,123)" /><g
     id="g19"
     transform="translate(0,123)" /><g
     id="g21"
     transform="translate(0,123)" /><g
     id="g23"
     transform="translate(0,123)" /><g
     id="g25"
     transform="translate(0,123)" /><g
     id="g27"
     transform="translate(0,123)" /><g
     id="g29"
     transform="translate(0,123)" /><g
     id="g31"
     transform="translate(0,123)" /><g
     id="g33"
     transform="translate(0,123)" /><g
     id="g4391"
     transform="matrix(0.412,0,0,0.412,33.3,71.4)"><g
       transform="translate(-0.07,-70)"
       id="g3773"><path
         d="m 189,304 c -1,0 -2,-1 -2,-1 0,-1 -6,-16 -42,-38 -33,-19 -66.5,-19 -74.3,-19 -0.8,4 -4.4,7 -8.6,7 h -7.6 l 6.5,38 c 0.3,2 -0.1,3 -1.2,5 -1,1 -2.5,1 -4,1 H 42.1 c -2.6,0 -4.9,-1 -5.3,-4 L 30,253 h -9.8 c -4.9,0 -8.8,-4 -8.8,-9 v -4 H 6.48 C 2.91,240 0,238 0,234 v -22 c 0,-3 2.91,-6 6.48,-6 h 4.92 v -4 c 0,-5 3.9,-9 8.8,-9 h 41.9 c 4.2,0 7.8,3 8.6,7 7.9,0 41.3,0 74.3,-19 l 0,0 c 36,-22 42,-37 42,-38 0,0 1,-1 2,-1 1,0 2,1 2,2 v 56 c 5,0 9,5 9,11 v 24 c 0,6 -4,11 -9,11 v 56 c 0,1 -1,2 -2,2 0,0 0,0 0,0 z M 72.1,242 c 10.4,0 42.9,2 74.9,20 24,14 35,26 40,33 V 151 c -5,7 -16,19 -40,33 l -1,-2 1,2 c -33,19 -67.4,20 -76.1,20 v 4 c 9.4,1 53.1,2 83.1,-15 1,0 2,0 2,1 1,1 1,2 0,3 -31,17 -74.8,16 -85.1,15 v 30 c 0.3,0 0.8,0 1.2,0 z m -38,11 6.7,39 c 0.1,1 0.6,1 1.3,1 h 13.7 c 0.5,0 0.8,0 1,0 0.1,0 0.4,-1 0.3,-1 L 50.5,253 H 34.1 z m 18.1,-4 h 9.9 c 2.6,0 4.8,-2 4.8,-5 v -42 c 0,-3 -2.2,-5 -4.8,-5 H 20.2 c -2.7,0 -4.8,2 -4.8,5 v 42 c 0,3 2.1,5 4.8,5 h 32 z M 191,204 v 38 c 3,0 5,-3 5,-7 v -24 c 0,-4 -2,-7 -5,-7 z M 6.48,210 C 5.11,210 4,211 4,212 v 22 c 0,1 1.11,2 2.48,2 H 11.4 V 210 H 6.48 z m 52.62,9 H 39 c -1.1,0 -2,-1 -2,-2 0,-1 0.9,-2 2,-2 h 20.1 c 1.1,0 2,1 2,2 0,1 -0.9,2 -2,2 z m -32.6,0 c -3.7,0 -6.7,-3 -6.7,-7 0,-3 3,-6 6.7,-6 3.6,0 6.6,3 6.6,6 0,4 -3,7 -6.6,7 z m 0,-9 c -1.5,0 -2.7,1 -2.7,2 0,2 1.2,3 2.7,3 1.4,0 2.6,-1 2.6,-3 0,-1 -1.2,-2 -2.6,-2 z m 32.6,0 H 39 c -1.1,0 -2,-1 -2,-2 0,-1 0.9,-2 2,-2 h 20.1 c 1.1,0 2,1 2,2 0,1 -0.9,2 -2,2 z"
         id="path3"
         style="fill:#ffffff"
         inkscape:connector-curvature="0" /><path
         sodipodi:type="arc"
         style="fill:none;stroke:#ffffff;stroke-width:9.621;stroke-linecap:round;stroke-linejoin:miter;stroke-miterlimit:4;stroke-opacity:1;stroke-dasharray:none;stroke-dashoffset:0"
         id="path2997"
         sodipodi:cx="186"
         sodipodi:cy="106"
         sodipodi:rx="107"
         sodipodi:ry="107"
         d="m 293,106 c 0,59 -48,107 -107,107 -19,0 -37,-5 -53,-14"
         sodipodi:start="0"
         sodipodi:end="2.09"
         sodipodi:open="true"
         transform="matrix(0.26,-0.45,0.45,0.26,87.5,281)" /><path
         transform="matrix(0.347,-0.6,0.6,0.347,69.2,300)"
         sodipodi:open="true"
         sodipodi:end="2.09"
         sodipodi:start="0"
         d="m 293,106 c 0,59 -48,107 -107,107 -19,0 -37,-5 -53,-14"
         sodipodi:ry="107"
         sodipodi:rx="107"
         sodipodi:cy="106"
         sodipodi:cx="186"
         id="path3769"
         style="fill:none;stroke:#ffffff;stroke-width:7.214;stroke-linecap:round;stroke-linejoin:miter;stroke-miterlimit:4;stroke-opacity:1;stroke-dasharray:none;stroke-dashoffset:0"
         sodipodi:type="arc" /><path
         sodipodi:type="arc"
         style="fill:none;stroke:#ffffff;stroke-width:5.599;stroke-linecap:round;stroke-linejoin:miter;stroke-miterlimit:4;stroke-opacity:1;stroke-dasharray:none;stroke-dashoffset:0"
         id="path3771"
         sodipodi:cx="186"
         sodipodi:cy="106"
         sodipodi:rx="107"
         sodipodi:ry="107"
         d="m 293,106 c 0,59 -48,107 -107,107 -19,0 -37,-5 -53,-14"
         sodipodi:start="0"
         sodipodi:end="2.09"
         sodipodi:open="true"
         transform="matrix(0.447,-0.773,0.773,0.447,46,321)" /></g><g
       transform="matrix(0.125,0,0,-0.125,-54.5,675)"
       clip-path="url(#clipPath3857)"
       id="g3855"><path
         id="path3871"
         style="fill:url(#linearGradient4454);fill-opacity:1;fill-rule:nonzero;stroke:none"
         d="M 2370,803 C 1060,803 0,1860 0,3170 c 0,1310 1060,2370 2370,2370 170,0 330,-10 480,-50 -270,-260 -580,-490 -910,-680 0,0 0,0 0,0 -30,-20 -60,-40 -100,-60 0,0 0,0 0,0 -40,-20 -100,-50 -140,-80 0,0 0,0 -10,0 0,0 0,0 0,0 0,0 0,0 0,0 -10,-10 -10,-10 -20,-10 -100,-60 -210,-120 -330,-190 l -50,90 c -10,10 -20,20 -50,20 -20,0 -60,-10 -90,-30 -70,-30 -100,-90 -90,-120 l 70,-110 C 897,4140 701,3920 664,3620 c -10,-70 -10,-150 3,-230 -2,0 -3,0 -5,0 -142,-60 -192,-260 -112,-450 64,-140 192,-240 313,-240 0,0 0,0 0,0 0,0 0,0 0,0 31,0 62,10 91,20 18,10 34,20 46,30 180,-150 400,-200 630,-200 110,0 230,10 340,30 20,-10 90,-50 190,-120 10,-50 40,-110 80,-170 30,-50 90,-80 160,-80 20,0 50,0 80,10 250,-200 520,-480 640,-790 -120,-30 -240,-50 -360,-50 -80,0 -170,10 -260,30 -260,60 -500,200 -640,430 -60,100 -90,210 -160,290 -40,60 -120,110 -190,110 -20,0 -50,-10 -70,-20 -40,-30 -90,-60 -130,-90 -30,-30 -50,-70 -60,-110 -20,-110 20,-220 70,-310 80,-160 220,-280 370,-360 180,-90 380,-110 570,-120 30,0 50,0 70,0 160,0 300,10 450,40 90,20 180,40 260,80 30,10 60,30 90,40 20,-40 30,-80 40,-120 0,0 20,0 60,0 0,0 0,0 0,0 0,0 0,0 0,0 10,0 10,0 10,0 0,0 0,0 0,0 70,0 170,10 270,50 190,60 390,210 360,560 0,0 -710,530 -970,940 340,70 670,110 1000,110 260,0 520,-20 760,-80 20,0 40,0 60,-10 C 4560,1690 3570,803 2370,803 m 70,507 c -150,0 -300,10 -440,50 -210,50 -400,180 -520,360 -50,80 -100,180 -110,270 0,60 0,120 20,170 0,0 0,0 0,0 120,0 220,-140 260,-240 80,-170 170,-320 330,-420 150,-100 310,-160 490,-190 -10,0 -20,0 -30,0"
         inkscape:connector-curvature="0" /></g><path
       inkscape:connector-curvature="0"
       d="m 363,485 c -32,16 -69,23 -105,14 -32,-8 -62,-25 -80,-54 -7,-12 -11,-26 -20,-36 -7,-9 -21,-18 -32,-11 -5,3 -12,7 -17,11 -3,4 -6,9 -7,14 -2.8,13 2,27 9,38 10,20 27,35 46,45 22,12 47,14 71,15 23,0 44,-1 65,-5 11,-2 23,-5 33,-10 8,-3 17,-8 26,-15 1,0 5,-2 5,-3 -4,2 -6,5 -10,6 12,-8 2,-1 -1,0 -3,1 -5,2 -8,4 -6,2 -12,5 -20,6 -12,4 -26,5 -40,6 -26,3 -56,3 -82,-5 -27,-6 -50,-22 -65,-45 -7,-10 -13,-22 -14,-34 0,-10 1,-21 9,-27 -2,0 -3,0 -3,1 0,0 0,0 1,-1 -5,4 -10,6 -13,9 18,-10 35,13 41,27 10,21 21,40 41,53 23,15 48,23 75,25 28,2 55,-5 79,-18 6,-2 11,-7 16,-10"
       style="fill:#211c1d;fill-opacity:1;fill-rule:nonzero;stroke:none"
       id="path3873" /><path
       inkscape:connector-curvature="0"
       d="m 79.2,279 c 10,24 3.8,49 -14.5,56 -17.8,8 -40.4,-5 -50.4,-27 -10.05,-24 -3.8,-49 14,-57 17.8,-7 40.4,5 50.9,28"
       style="fill:#211c1d;fill-opacity:1;fill-rule:nonzero;stroke:none"
       id="path3875" /><g
       transform="matrix(0.125,0,0,-0.125,-54.5,675)"
       clip-path="url(#clipPath3881)"
       id="g3879"><path
         id="path3895"
         style="fill:url(#linearGradient4456);fill-opacity:1;fill-rule:nonzero;stroke:none"
         d="m 863,2700 c 0,0 0,0 0,0 31,0 62,10 91,20 17,10 34,20 46,30 0,0 0,0 0,0 -12,-10 -28,-20 -46,-30 -29,-10 -60,-20 -91,-20"
         inkscape:connector-curvature="0" /></g><path
       inkscape:connector-curvature="0"
       d="m 53.4,338 c -15.2,0 -31.1,-13 -39.1,-30 -6.68,-17 -6.17,-32 0.3,-44 -0.5,9 1,17 4.7,25 8,19 23.9,30 39.1,30 0.2,0 0.5,0 0.7,0 3.6,5 7.6,9 11.4,12 -1.5,2 -3.6,3 -5.8,4 -3.6,1 -7.5,3 -11.3,3"
       style="fill:#161312;fill-opacity:1;fill-rule:nonzero;stroke:none"
       id="path3897" /><path
       inkscape:connector-curvature="0"
       d="m 204,343 c 0,0 129,85 145,173 0,0 88,2 80,-76 0,0 -121,-90 -131,-141 l -94,44"
       style="fill:#55ab35;fill-opacity:1;fill-rule:nonzero;stroke:none"
       id="path3899" /><path
       inkscape:connector-curvature="0"
       d="m 191,351 c 0,0 133,77 151,165 0,0 81,10 74,-67 0,0 -122,-90 -132,-141 l -93,43"
       style="fill:#74c92e;fill-opacity:1;fill-rule:nonzero;stroke:none"
       id="path3901" /><path
       inkscape:connector-curvature="0"
       d="m 38,283 c -0.1,-2 0,0 0.1,0 0.1,0 0.3,0 -0.1,0"
       style="fill:#9fd2bc;fill-opacity:1;fill-rule:nonzero;stroke:none"
       id="path3903" /><path
       inkscape:connector-curvature="0"
       d="m 411,-165 c -19,24 -30,55 -47,78.8 C 314,-11.3 241,47.5 157,91.2 102,121 -6.12,178 38,283 c 41.2,106 158,71 219,53 90,-27 184,-36 271,-17 29,5 59,21 89,24 L 411,-165"
       style="fill:#9fd2bc;fill-opacity:1;fill-rule:nonzero;stroke:none"
       id="path3905" /><path
       inkscape:connector-curvature="0"
       d="m 183,77.5 c -7,3.7 -19,10 -26,13.7 C 101,121 -6.12,178 38,283 c 41.2,106 156,71 218,53 12,-3 25,-7 37,-10 C 193,264 169,125 183,77.5"
       style="fill:#5aa48f;fill-opacity:1;fill-rule:nonzero;stroke:none"
       id="path3907" /><path
       inkscape:connector-curvature="0"
       d="m 522,275 c -5,-1 -10,-1 -16,-2 C 478,238 449,190 424,128 376,6.25 372,-97.5 396,-143 c -18,46.8 -5,145.5 42,262 26,64 55,117 84,156"
       style="fill:#7fa99a;fill-opacity:1;fill-rule:nonzero;stroke:none"
       id="path3909" /><path
       inkscape:connector-curvature="0"
       d="m 416,449 13,-9 c 0,0 9,51 -40,69 0,0 32,-14 27,-60"
       style="fill:#488e34;fill-opacity:1;fill-rule:nonzero;stroke:none"
       id="path3911" /><path
       inkscape:connector-curvature="0"
       d="m 328,356 24,24 19,-16 c 0,0 -14,-18 -43,-8"
       style="fill:#30291d;fill-opacity:1;fill-rule:nonzero;stroke:none"
       id="path3913" /><path
       inkscape:connector-curvature="0"
       d="m 322,356 24,24 18,-16 c 0,0 -13,-18 -42,-8"
       style="fill:#383022;fill-opacity:1;fill-rule:nonzero;stroke:none"
       id="path3915" /><path
       inkscape:connector-curvature="0"
       d="m 364,364 7,0 -20,16 -5,0 18,-16"
       style="fill:#201b16;fill-opacity:1;fill-rule:nonzero;stroke:none"
       id="path3917" /><path
       inkscape:connector-curvature="0"
       d="m 93,145 c -3.8,0 -6.3,-1 -7.5,-2 -1.3,-3 0,-5 1.2,-7 l 2.5,4 c 0,0 0,0 0,0 0,0 0,0 0,0 1.3,1 3.8,3 6.3,3 2.5,0 7.5,-2 11.5,-4 0,0 0,0 0,0 7,-4 12,-11 10,-15 l -1,-3 c 2,0 5,0 6,3 2,4 -1,11 -11,16 -7,3 -13,5 -18,5"
       style="fill:#529583;fill-opacity:1;fill-rule:nonzero;stroke:none"
       id="path3919" /><path
       inkscape:connector-curvature="0"
       d="m 89.2,106 c -8.7,4 -12.5,12 -11.2,15 l 11.2,19 c 1.3,4 10,3 17.8,-1 7,-4 12,-11 10,-15 l -10,-19 c -1,-4 -10.3,-4 -17.8,1"
       style="fill:#30291d;fill-opacity:1;fill-rule:nonzero;stroke:none"
       id="path3921" /><path
       inkscape:connector-curvature="0"
       d="m 95.5,143 c -2.5,0 -5,-2 -6.3,-3 0,0 0,0 0,0 1.3,1 3.8,3 6.3,3 2.5,0 7.5,-2 11.5,-4 0,0 0,0 0,0 0,0 0,0 0,0 -4,2 -9,4 -11.5,4"
       style="fill:#2e4d47;fill-opacity:1;fill-rule:nonzero;stroke:none"
       id="path3923" /><path
       inkscape:connector-curvature="0"
       d="m 95.5,143 c -2.5,0 -5,-2 -6.3,-3 3.8,0 6.3,-1 10,-2 7.8,-5 12.8,-12 9.8,-15 l -9.8,-19 c 0,0 0,-1 0,-1 0,0 1.8,0 1.8,0 3,0 5,1 6,2 l 10,19 c 2,4 -3,11 -10,15 0,0 0,0 0,0 -4,2 -9,4 -11.5,4"
       style="fill:#1e1a14;fill-opacity:1;fill-rule:nonzero;stroke:none"
       id="path3925" /><path
       inkscape:connector-curvature="0"
       d="m 91.7,135 -8.7,-16 12.5,14 -3.8,2"
       style="fill:#565245;fill-opacity:1;fill-rule:nonzero;stroke:none"
       id="path3927" /><path
       inkscape:connector-curvature="0"
       d="m 364,501 c -2,0 -5,0 -6,0 0,0 43,-6 50,-42 0,0 -4,42 -44,42"
       style="fill:#8dd24f;fill-opacity:1;fill-rule:nonzero;stroke:none"
       id="path3929" /><path
       inkscape:connector-curvature="0"
       d="m 349,490 c 0,0 0,0 0,0 0,0 0,0 0,0 m 0,0 c 0,-1 -1,-2 -1,-5 0,3 1,4 1,5 m -1,-5 c -10,-35 -49,-71 -80,-97 1,-2 3,-4 4,-7 54,38 71,89 76,104"
       style="fill:#8dd24f;fill-opacity:1;fill-rule:nonzero;stroke:none"
       id="path3931" /><g
       transform="matrix(0.125,0,0,-0.125,-54.5,675)"
       clip-path="url(#clipPath3937)"
       id="g3935"><path
         id="path3951"
         style="fill:url(#linearGradient4458);fill-opacity:1;fill-rule:nonzero;stroke:none"
         d="m 2400,2210 c -70,0 -130,30 -160,80 -40,60 -70,120 -80,170 90,-60 200,-140 320,-240 -30,-10 -60,-10 -80,-10"
         inkscape:connector-curvature="0" /></g><path
       inkscape:connector-curvature="0"
       d="m 256,398 c -15,-13 -29,-23 -40,-30 0,-5 1,-9 6,-13 6,-4 15,-7 24,-7 10,0 20,3 25,12 3,6 3,14 1,21 -14,-10 -30,-18 -49,-25 0,0 20,13 45,32 -2,2 -5,5 -7,7 -2,0 -4,1 -5,3"
       style="fill:#64c431;fill-opacity:1;fill-rule:nonzero;stroke:none"
       id="path3953" /><path
       inkscape:connector-curvature="0"
       d="m 268,388 c -25,-19 -45,-32 -45,-32 19,7 35,15 49,25 -1,3 -3,5 -4,7"
       style="fill:#7dcd49;fill-opacity:1;fill-rule:nonzero;stroke:none"
       id="path3955" /><path
       inkscape:connector-curvature="0"
       d="m 266,363 c 6,11 2,26 -10,33 -14,9 -29,5 -37,-6 -6,-11 -5,-26 8,-35 12,-7 31,-4 39,8"
       style="fill:#bdbdbb;fill-opacity:1;fill-rule:nonzero;stroke:none"
       id="path3957" /><path
       inkscape:connector-curvature="0"
       d="m 259,365 c 7,11 3,28 -10,35 -13,8 -28,5 -36,-6 -6,-11 -5,-28 8,-35 12,-8 31,-5 38,6"
       style="fill:#eaebe9;fill-opacity:1;fill-rule:nonzero;stroke:none"
       id="path3959" /><path
       inkscape:connector-curvature="0"
       d="m 251,371 c 3,7 1,17 -7,22 -8,3 -17,2 -22,-4 -4,-8 -4,-18 4,-23 8,-5 20,-2 25,5"
       style="fill:#211c1d;fill-opacity:1;fill-rule:nonzero;stroke:none"
       id="path3961" /><path
       inkscape:connector-curvature="0"
       d="M 176,81.2 C 167,134 191,264 282,329 c 5,-1 10,-3 15,-4 C 198,261 174,123 188,73.7 c -4,2.5 -7,5 -12,7.5"
       style="fill:#c0e280;fill-opacity:1;fill-rule:nonzero;stroke:none"
       id="path3963" /><path
       inkscape:connector-curvature="0"
       d="m 121,193 c -14,0 -23,-5 -23,-15 0,-15 15,-22 15,-22 21,-7 43,-17 63,-26 1,15 3,31 8,49 -13,4 -28,7 -43,11 -8,1 -15,3 -20,3"
       style="fill:#7ab9a4;fill-opacity:1;fill-rule:nonzero;stroke:none"
       id="path3965" /><path
       inkscape:connector-curvature="0"
       d="m 194,176 c -5,-18 -7,-36 -8,-51 56,-30 108,-66.3 148,-112.5 10,-11.25 24,-31.3 33,-45 5,31.25 10,66.2 25,112.5 -58,46 -124,75 -198,96"
       style="fill:#b3ddca;fill-opacity:1;fill-rule:nonzero;stroke:none"
       id="path3967" /><path
       inkscape:connector-curvature="0"
       d="m 184,179 c -5,-18 -7,-34 -8,-49 2,-2 6,-4 10,-5 1,15 3,33 8,51 -2,2 -6,3 -10,3"
       style="fill:#cee89a;fill-opacity:1;fill-rule:nonzero;stroke:none"
       id="path3969" /><path
       inkscape:connector-curvature="0"
       d="m 256,336 c 2,-1 6,-1 8,-2 -2,0 -3,1 -5,1 -1,0 -1,1 -2,1 l 0,0 c 0,0 -1,0 -1,0 m 12,-3 c 5,-2 9,-3 14,-4 l 0,0 c -5,1 -9,2 -14,4 M 28.5,221 C 31.4,200 41,181 54.1,165 54,165 54,166 54,166 41,181 31.5,200 28.5,221"
       style="fill:#8fbeac;fill-opacity:1;fill-rule:nonzero;stroke:none"
       id="path3971" /><path
       inkscape:connector-curvature="0"
       d="M 151,356 C 106,356 60.6,340 38,283 28.6,260 26.1,240 28.5,221 31.5,200 41,181 54,166 c -7.4,22 -7.3,48 5.1,77 -0.1,0 -0.1,0 -0.1,0 0,0 0.1,0 0.1,0 0.1,1 0.3,1 0.3,1 0,0 0,0 0,0 22.3,55 64.6,71 109.6,71 28,0 57,-6 82,-14 8,10 20,20 31,28 -5,1 -9,2 -14,4 -1,0 -2,1 -4,1 -2,1 -6,1 -8,2 -28,8 -67,20 -105,20"
       style="fill:#529583;fill-opacity:1;fill-rule:nonzero;stroke:none"
       id="path3973" /><path
       inkscape:connector-curvature="0"
       d="m 617,343 c 0,0 0,0 0,0 l 0,0 c 0,0 0,0 0,0 l 0,0 m -33,-8 c -16,-5 -32,-11 -48,-15 l 0,0 c 16,4 32,10 48,15 l 0,0"
       style="fill:#ebebea;fill-opacity:1;fill-rule:nonzero;stroke:none"
       id="path3975" /><g
       transform="matrix(0.125,0,0,-0.125,-54.5,675)"
       clip-path="url(#clipPath3981)"
       id="g3979"><path
         id="path3995"
         style="fill:url(#linearGradient4460);fill-opacity:1;fill-rule:nonzero;stroke:none"
         d="m 4720,2840 c -20,10 -40,10 -60,10 -240,60 -500,80 -760,80 l 0,0 c 260,0 520,-20 760,-80 20,0 40,0 60,-10 l 0,0"
         inkscape:connector-curvature="0" /></g><path
       inkscape:connector-curvature="0"
       d="m 617,343 c 0,0 0,0 0,0 0,0 0,0 0,0 l 0,0 m -33,-8 c -16,-5 -32,-11 -48,-15 -3,-1 -5,-1 -8,-1 -30,-8 -62,-10 -95,-10 l 0,0 c -45,0 -90,6 -136,16 -13,-7 -24,-17 -34,-27 4,0 6,-2 10,-3 56,-16 115,-26 171,-26 22,0 42,1 62,4 25,31 50,50 72,58 3,3 4,3 6,4"
       style="fill:#8fbeac;fill-opacity:1;fill-rule:nonzero;stroke:none"
       id="path3997" /><path
       inkscape:connector-curvature="0"
       d="m 578,331 c -22,-8 -47,-27 -72,-58 6,1 11,1 16,2 19,26 39,46 56,56"
       style="fill:#73998e;fill-opacity:1;fill-rule:nonzero;stroke:none"
       id="path3999" /><path
       inkscape:connector-curvature="0"
       d="m 282,329 0,0 c -11,-8 -23,-18 -31,-28 3,-1 8,-2 12,-3 10,10 21,20 34,27 -5,1 -10,3 -15,4"
       style="fill:#aecc75;fill-opacity:1;fill-rule:nonzero;stroke:none"
       id="path4001" /><path
       inkscape:connector-curvature="0"
       d="m 59.4,244 c -0.2,0 -0.2,-1 -0.3,-1 0.1,1 0.1,1 0.3,1 m -0.3,-1 c 0,0 0,0 0,0 0,0 0,0 0,0"
       style="fill:#529583;fill-opacity:1;fill-rule:nonzero;stroke:none"
       id="path4003" /><path
       inkscape:connector-curvature="0"
       d="M 419,-170 C 453,-184 528,-90 586,51.2 642,191 659,326 626,340 576,360 499,268 438,119 377,-31.3 373,-150 419,-170"
       style="fill:#211c1d;fill-opacity:1;fill-rule:nonzero;stroke:none"
       id="path4005" /><path
       inkscape:connector-curvature="0"
       d="m 434,-140 c 28,-11 89,73.8 139,196.2 C 623,180 643,295 616,306 574,323 514,240 461,109 407,-22.5 397,-124 434,-140"
       style="fill:#dddedd;fill-opacity:1;fill-rule:nonzero;stroke:none"
       id="path4007" /><path
       inkscape:connector-curvature="0"
       d="M 573,56.2 C 523,-66.2 462,-151 434,-140 c -5,2 -10,6 -12,12 31,14 81,90.5 124,195.5 43,106.5 63,207.5 50,238.5 7,3 13,3 20,0 27,-11 7,-126 -43,-249.8"
       style="fill:#f6f7f7;fill-opacity:1;fill-rule:nonzero;stroke:none"
       id="path4009" /><g
       transform="matrix(0.125,0,0,-0.125,-54.5,675)"
       clip-path="url(#clipPath4015)"
       id="g4013"><path
         id="path4019"
         style="fill:#74c92e;fill-opacity:1;fill-rule:nonzero;stroke:none"
         d="m 4630,4770 c -70,170 -200,280 -280,260 l 0,0 -1630,-490 370,-940 1520,780 c 80,40 90,210 20,390"
         inkscape:connector-curvature="0" /></g><path
       inkscape:connector-curvature="0"
       d="m 478,149 c -1,-3 -2,-6 -5,-10 l 0,0 c 3,4 4,7 5,10 l 0,0"
       style="fill:#1d1918;fill-opacity:1;fill-rule:nonzero;stroke:none"
       id="path4021" /><path
       inkscape:connector-curvature="0"
       d="m 478,149 c -1,-3 -2,-6 -5,-10 l 0,0 c 3,4 4,7 5,10 l 0,0"
       style="fill:#b2b3b3;fill-opacity:1;fill-rule:nonzero;stroke:none"
       id="path4023" /><path
       inkscape:connector-curvature="0"
       d="m 478,149 c -1,-3 -2,-6 -5,-10 l 36,-19 c 4,-1 7,-6 8,-12 2,6 5,10 7,10 2,0 2,0 2,0 2,-2 3,-4 3,-7 0,8 -2,14 -8,17 l -43,21 m 20,-99 c -1,-1.3 -2,-2.5 -4,-3.8 3,0 5,1.3 9,3.8 -1,0 -2,0 -2,0 -2,0 -2,0 -3,0 0,0 0,0 0,0"
       style="fill:#59b134;fill-opacity:1;fill-rule:nonzero;stroke:none"
       id="path4025" /><path
       inkscape:connector-curvature="0"
       d="m 498,50 c 6,-2.5 19,8.7 26,27.5 8,18.7 8,37.5 2,40.5 -7,2 -9,-14 -17,-33 -7,-18.8 -17,-32.5 -11,-35"
       style="fill:#383022;fill-opacity:1;fill-rule:nonzero;stroke:none"
       id="path4027" /><path
       inkscape:connector-curvature="0"
       d="m 531,105 c 0,-7.5 -3,-17.5 -7,-27.5 -6,-15 -15,-25 -21,-27.5 0,0 0,0 -1,0 7,1.2 16,12.5 22,27.5 4,10 7,20 7,27.5"
       style="fill:#8b8c8d;fill-opacity:1;fill-rule:nonzero;stroke:none"
       id="path4029" /><path
       inkscape:connector-curvature="0"
       d="m 503,50 c 0,0 0,0 0,0 0,0 -1,0 -1,0 0,0 0,0 0,0 1,0 1,0 1,0"
       style="fill:#468833;fill-opacity:1;fill-rule:nonzero;stroke:none"
       id="path4031" /><path
       inkscape:connector-curvature="0"
       d="m 524,118 c -1,0 -1,0 -2,-2 0,0 0,0 0,-1 6,-1 6,-21.3 -1,-40 -5,-12.5 -13,-21.3 -18,-25 0,0 0,0 0,0 6,2.5 15,12.5 21,27.5 4,10 7,20 7,27.5 0,6 -3,11 -5,13 0,0 0,0 -2,0"
       style="fill:#252018;fill-opacity:1;fill-rule:nonzero;stroke:none"
       id="path4033" /></g></svg>
